<?xml version="1.0" encoding="UTF-8" standalone="no"?>
<!-- Created with Inkscape (http://www.inkscape.org/) -->

<svg
   width="55mm"
   height="55mm"
   viewBox="0 0 55 55"
   version="1.1"
   id="svg842"
   inkscape:version="1.1.2 (0a00cf5339, 2022-02-04)"
   sodipodi:docname="logo.svg"
   xmlns:inkscape="http://www.inkscape.org/namespaces/inkscape"
   xmlns:sodipodi="http://sodipodi.sourceforge.net/DTD/sodipodi-0.dtd"
   xmlns="http://www.w3.org/2000/svg"
   xmlns:svg="http://www.w3.org/2000/svg">
  <sodipodi:namedview
     id="namedview844"
     pagecolor="#ffffff"
     bordercolor="#666666"
     borderopacity="1.0"
     inkscape:pageshadow="2"
     inkscape:pageopacity="0.0"
     inkscape:pagecheckerboard="0"
     inkscape:document-units="mm"
     showgrid="false"
     inkscape:zoom="2.1997092"
     inkscape:cx="55.234574"
     inkscape:cy="93.876045"
     inkscape:window-width="1920"
     inkscape:window-height="1076"
     inkscape:window-x="1920"
     inkscape:window-y="27"
     inkscape:window-maximized="1"
     inkscape:current-layer="layer1"
     fit-margin-top="0"
     fit-margin-left="0"
     fit-margin-right="0"
     fit-margin-bottom="0" />
  <defs
     id="defs839" />
  <g
     inkscape:label="Ebene 1"
     inkscape:groupmode="layer"
     id="layer1"
     transform="translate(-20.089067,-7.1858748)">
    <rect
       style="fill:#008000;fill-opacity:1;stroke:#000000;stroke-width:1.29588;stroke-linejoin:round;stroke-miterlimit:4;stroke-dasharray:none;paint-order:normal"
       id="rect945"
       width="23.704124"
       height="23.704121"
       x="14.793649"
       y="27.756111"
       transform="rotate(-13.190496)" />
    <rect
       style="fill:#0000ff;fill-opacity:1;stroke:#000000;stroke-width:1.29588;stroke-linejoin:round;stroke-miterlimit:4;stroke-dasharray:none;paint-order:normal"
       id="rect945-3"
       width="23.704124"
       height="23.704121"
       x="54.455299"
       y="-14.665618"
       transform="rotate(31.166123)" />
    <rect
       style="fill:#ffff00;fill-opacity:1;stroke:#000000;stroke-width:1.29588;stroke-linejoin:round;stroke-miterlimit:4;stroke-dasharray:none;paint-order:normal"
       id="rect945-6"
       width="23.704124"
       height="23.704121"
       x="42.433952"
       y="26.100088"
       transform="rotate(2.4014102)" />
    <rect
       style="fill:#ff0000;fill-opacity:1;stroke:#000000;stroke-width:1.29588;stroke-linejoin:round;stroke-miterlimit:4;stroke-dasharray:none;paint-order:normal"
       id="rect945-7"
       width="23.704124"
       height="23.704121"
       x="41.549904"
       y="10.068827"
       transform="rotate(21.665568)" />
    <g
       id="g1523"
       transform="matrix(0.0324015,0,0,0.0324015,27.207934,22.476286)"
       style="stroke:#ffffff;stroke-width:25.6778;stroke-miterlimit:4;stroke-dasharray:none;stroke-opacity:1">
      <g
         id="g1512"
         style="stroke:#ffffff;stroke-width:25.6778;stroke-miterlimit:4;stroke-dasharray:none;stroke-opacity:1">
        <g
           id="g1502"
           style="stroke:#ffffff;stroke-width:25.6778;stroke-miterlimit:4;stroke-dasharray:none;stroke-opacity:1">
          <g
             id="g1493"
             style="stroke:#ffffff;stroke-width:25.6778;stroke-miterlimit:4;stroke-dasharray:none;stroke-opacity:1">
            <path
               d="m 989,1 c -39.3,2.9 -81,9.6 -109.9,17.9 l -9.6,2.8 -0.3,71.1 -0.2,71.2 h 9.9 c 8.7,0 11.7,-0.5 25.2,-4.4 59.3,-17 110.9,-20.8 148.9,-11.1 3.6,0.9 11.2,3.9 17,6.7 18.4,8.9 30,23 35.1,42.7 5.5,20.9 2.8,49.5 -6.9,72.1 -9.8,23 -22.5,40.3 -57.6,78.6 -25.2,27.4 -40,48.1 -51.6,71.9 -18.7,38.3 -25,74.2 -25,142.2 V 589 h 76.5 76.5 v -6.8 c 0.1,-17.1 2.1,-51.7 3.5,-60.7 4,-26.3 14.1,-50.4 31,-74 8,-11.1 14.6,-18.7 38.5,-44 33.3,-35.2 46.2,-51.5 59.8,-75.2 14.6,-25.7 23.6,-53.2 28.4,-86.8 2,-13.6 1.6,-55.1 -0.6,-69.9 C 1267.4,102.1 1230.5,52.9 1167.8,25.3 1141.9,13.9 1111.7,6.4 1075.5,2.4 1058.7,0.6 1006.9,-0.2 989,1 Z"
               id="path4"
               style="fill:#000000;stroke:#ffffff;stroke-width:25.6778;stroke-miterlimit:4;stroke-dasharray:none;stroke-opacity:1" />
            <path
               d="M 124.5,1.6 C 96.3,3.4 63.9,7.6 40,12.5 26.9,15.2 7.4,20.1 2.8,21.9 L 0,23 v 70 70 h 10.3 c 7.6,0 11.9,-0.5 15.9,-1.9 16.9,-5.8 53.5,-13.7 77.3,-16.7 19,-2.4 50.2,-2.4 64,0.1 37.2,6.5 57.5,22.2 65.7,51 1.9,6.8 2.2,10.5 2.3,24 0,17.6 -1.1,24.9 -5.7,39 -8.3,24.7 -21.5,43.9 -58.3,84 -32.5,35.5 -48.4,59.1 -59.9,88.8 -12.4,31.8 -16.4,58.5 -17.3,114.5 l -0.6,36.2 75.9,-0.2 75.9,-0.3 0.6,-27 c 1,-42.8 5.4,-63.6 18.8,-89.2 10.8,-20.5 21,-33.4 52.4,-66.5 C 348,366.3 360.2,351.2 373,330 396.5,291.1 407.6,245.8 405.6,196.8 403.3,139 385.7,95.8 350.9,62.5 315.9,29.1 269.3,10.5 201.5,3 191.5,1.9 135.9,0.9 124.5,1.6 Z"
               id="path6"
               style="fill:#000000;stroke:#ffffff;stroke-width:25.6778;stroke-miterlimit:4;stroke-dasharray:none;stroke-opacity:1" />
            <path
               d="m 558.5,1.6 c -28.2,1.8 -60.6,6 -84.5,10.9 -13.1,2.7 -32.6,7.6 -37.2,9.4 L 434,23 v 70 70 h 10.3 c 7.6,0 11.9,-0.5 15.9,-1.9 16.7,-5.7 54.1,-13.9 76.9,-16.7 18.7,-2.4 51,-2.3 64.4,0 37.3,6.6 57.8,22.6 65.7,51.5 1.8,6.4 2.2,10.3 2.1,25.1 0,15.6 -0.3,18.6 -2.5,27 -8.4,31.2 -19.8,48.9 -60.7,93.8 -20.3,22.3 -29.1,33.2 -38.2,46.9 -17.5,26.5 -28.1,52.6 -33.9,83.3 -3.9,20.3 -5.1,36.6 -5.7,73.8 l -0.6,36.2 75.9,-0.2 75.9,-0.3 0.6,-27.5 c 0.7,-28.2 2,-40.3 5.9,-55.2 8.5,-32.2 23,-55.4 57.5,-91.8 35.4,-37.3 43.8,-47.2 57.6,-67.9 23.5,-35.2 35,-70.2 38.1,-115.3 3,-45.7 -5.4,-88.9 -23.9,-122.2 C 801.6,77.2 780.4,55.1 756.2,40.1 724.1,20.2 686.6,8.6 635.5,3 625.5,1.9 569.9,0.9 558.5,1.6 Z"
               id="path8"
               style="fill:#000000;stroke:#ffffff;stroke-width:25.6778;stroke-miterlimit:4;stroke-dasharray:none;stroke-opacity:1" />
            <path
               d="m 146,641.9 c -42.3,9 -67.8,40.8 -69.7,87.2 -2.5,60 34.3,98.9 93.7,98.9 48.7,0 82.9,-25.9 92.3,-70 2.6,-12.3 2.7,-34.8 0.3,-46.3 -8.2,-38.1 -31.9,-62.1 -69.1,-69.8 -12.1,-2.5 -35.5,-2.5 -47.5,0 z"
               id="path10"
               style="fill:#000000;stroke:#ffffff;stroke-width:25.6778;stroke-miterlimit:4;stroke-dasharray:none;stroke-opacity:1" />
            <path
               d="m 580,642 c -42.3,9 -67.7,40.5 -69.7,86.5 -0.9,21.6 2.5,38.8 10.9,54.5 15.6,29.3 44.5,45 82.8,45 49.4,0 82.9,-25.9 92.5,-71.5 2.1,-9.6 2.4,-31.8 0.6,-41.8 -6.7,-38.9 -31.6,-64.9 -69.6,-72.8 -12.2,-2.5 -35.5,-2.5 -47.5,0.1 z"
               id="path12"
               style="fill:#000000;stroke:#ffffff;stroke-width:25.6778;stroke-miterlimit:4;stroke-dasharray:none;stroke-opacity:1" />
            <path
               d="m 1022.8,649.1 c -14.2,2.1 -28.7,7.7 -40.5,15.7 -16.8,11.4 -29.6,32 -34.3,55.2 -1.9,9.1 -2.1,12.8 -1.7,27.5 0.4,12.7 1,18.9 2.5,24.6 10.8,40.4 41.8,64.5 85.7,66.6 43.3,2.1 77.4,-16.3 93,-50.1 7.3,-15.7 10.6,-37 8.6,-56.2 -2.6,-26 -11.4,-45.1 -28,-60.6 -12.3,-11.6 -28.7,-19.3 -47.6,-22.3 -9.6,-1.6 -28.4,-1.8 -37.7,-0.4 z"
               id="path14"
               style="fill:#000000;stroke:#ffffff;stroke-width:25.6778;stroke-miterlimit:4;stroke-dasharray:none;stroke-opacity:1" />
          </g>
        </g>
      </g>
    </g>
  </g>
</svg>
